<?xml version="1.0" encoding="UTF-8"?>
<svg width="100pt" height="100pt" version="1.1" viewBox="0 0 100 100" xmlns="http://www.w3.org/2000/svg">
 <path fill="#0090FF" d="m22.496 11.164c-9.3984 0-22.473 5.5547-22.496 24.582h12.836c0.007812-8.0078 4.4531-11.766 10.262-11.766 5.1289 0 8.6289 4.1016 8.6289 10.988 0 13.277-14.609 15.328-14.609 30.625 0 14.441 11.32 23.242 23.738 23.242 10.57 0 19.84-6.3242 24.883-21.961 1.6211-5.1289 4.1875-12.645 11.52-12.645 5.0586 0 9.9297 3.5898 9.9297 8.9727s-3.0742 9.0586-6.7852 12.766l9.8086 8.2617c5.3477-6.5898 9.7148-12.656 9.793-21.027 0.12109-12.73-10.766-21.617-23.121-21.617-15.074 0-20.629 13.074-23.02 20.508-2.3086 7.0938-5.7578 13.93-13.004 13.93-4.375 0-10.922-2.4766-10.922-10.398 0-11.219 14.441-13.953 14.441-30.949-0.007812-15.566-10.688-23.512-21.883-23.512z"/>
</svg>
