<svg width="66" height="66" viewBox="0 0 66 66" fill="none" xmlns="http://www.w3.org/2000/svg">
<g clip-path="url(#clip0_252_65464)">
<path d="M32.586 65.172C50.5827 65.172 65.172 50.5827 65.172 32.586C65.172 14.5892 50.5827 0 32.586 0C14.5892 0 0 14.5892 0 32.586C0 50.5827 14.5892 65.172 32.586 65.172Z" fill="#4C3AED"/>
<path d="M33.1679 50.0449C34.5918 50.0449 35.7461 48.8907 35.7461 47.4668C35.7461 46.0429 34.5918 44.8887 33.1679 44.8887C31.7441 44.8887 30.5898 46.0429 30.5898 47.4668C30.5898 48.8907 31.7441 50.0449 33.1679 50.0449Z" fill="#00FFFF"/>
<path d="M26.3125 45.4746C27.7364 45.4746 28.8907 44.3204 28.8907 42.8965C28.8907 41.4726 27.7364 40.3184 26.3125 40.3184C24.8887 40.3184 23.7344 41.4726 23.7344 42.8965C23.7344 44.3204 24.8887 45.4746 26.3125 45.4746Z" fill="#F6FB00"/>
<path d="M33.168 31.4668V36.0384C34.0724 36.0386 34.9564 36.3069 35.7082 36.8096C36.46 37.3122 37.0459 38.0266 37.3916 38.8622C37.7374 39.6979 37.8275 40.6173 37.6506 41.5042C37.4737 42.3911 37.0378 43.2056 36.3979 43.8447L39.6325 47.0745C40.9109 45.7958 41.7815 44.1668 42.1342 42.3934C42.4868 40.62 42.3058 38.7818 41.6139 37.1113C40.922 35.4408 39.7503 34.0129 38.247 33.0082C36.7436 32.0035 34.9762 31.4671 33.168 31.4668Z" fill="white"/>
<path d="M33.457 17.4609C32.0332 17.4609 30.8789 18.6152 30.8789 20.0391C30.8789 21.4629 32.0332 22.6172 33.457 22.6172C34.8809 22.6172 36.0352 21.4629 36.0352 20.0391C36.0352 18.6152 34.8809 17.4609 33.457 17.4609Z" fill="#F5D2FF"/>
<path d="M40.3126 22.0312C38.8887 22.0312 37.7344 23.1855 37.7344 24.6094C37.7344 26.0332 38.8887 27.1875 40.3126 27.1875C41.7364 27.1875 42.8907 26.0332 42.8907 24.6094C42.8907 23.1855 41.7364 22.0312 40.3126 22.0312Z" fill="#00FF00"/>
<path d="M33.4581 36.0392V31.4675C32.5538 31.4674 31.6698 31.199 30.918 30.6964C30.1661 30.1937 29.5803 29.4794 29.2346 28.6437C28.8888 27.8081 28.7987 26.8886 28.9756 26.0017C29.1524 25.1148 29.5884 24.3003 30.2283 23.6613L26.9936 20.4314C25.7152 21.7101 24.8447 23.3391 24.492 25.1126C24.1393 26.886 24.3204 28.7241 25.0123 30.3947C25.7042 32.0652 26.8759 33.4931 28.3792 34.4978C29.8825 35.5025 31.65 36.0389 33.4581 36.0392Z" fill="white"/>
</g>
<defs>
<clipPath id="clip0_252_65464">
<rect width="66" height="66" fill="white"/>
</clipPath>
</defs>
</svg>
