<svg width="207" height="66" viewBox="0 0 207 66" fill="none" xmlns="http://www.w3.org/2000/svg">
<g clip-path="url(#clip0_252_65464)">
<path d="M32.586 65.172C50.5827 65.172 65.172 50.5827 65.172 32.586C65.172 14.5892 50.5827 0 32.586 0C14.5892 0 0 14.5892 0 32.586C0 50.5827 14.5892 65.172 32.586 65.172Z" fill="#FF3000"/>
<path d="M33.1679 50.0449C34.5918 50.0449 35.7461 48.8907 35.7461 47.4668C35.7461 46.0429 34.5918 44.8887 33.1679 44.8887C31.7441 44.8887 30.5898 46.0429 30.5898 47.4668C30.5898 48.8907 31.7441 50.0449 33.1679 50.0449Z" fill="#00FFFF"/>
<path d="M26.3125 45.4746C27.7364 45.4746 28.8907 44.3204 28.8907 42.8965C28.8907 41.4726 27.7364 40.3184 26.3125 40.3184C24.8887 40.3184 23.7344 41.4726 23.7344 42.8965C23.7344 44.3204 24.8887 45.4746 26.3125 45.4746Z" fill="#F6FB00"/>
<path d="M33.168 31.4668V36.0384C34.0724 36.0386 34.9564 36.3069 35.7082 36.8096C36.46 37.3122 37.0459 38.0266 37.3916 38.8622C37.7374 39.6979 37.8275 40.6173 37.6506 41.5042C37.4737 42.3911 37.0378 43.2056 36.3979 43.8447L39.6325 47.0745C40.9109 45.7958 41.7815 44.1668 42.1342 42.3934C42.4868 40.62 42.3058 38.7818 41.6139 37.1113C40.922 35.4408 39.7503 34.0129 38.247 33.0082C36.7436 32.0035 34.9762 31.4671 33.168 31.4668Z" fill="white"/>
<path d="M33.457 17.4609C32.0332 17.4609 30.8789 18.6152 30.8789 20.0391C30.8789 21.4629 32.0332 22.6172 33.457 22.6172C34.8809 22.6172 36.0352 21.4629 36.0352 20.0391C36.0352 18.6152 34.8809 17.4609 33.457 17.4609Z" fill="#F5D2FF"/>
<path d="M40.3126 22.0312C38.8887 22.0312 37.7344 23.1855 37.7344 24.6094C37.7344 26.0332 38.8887 27.1875 40.3126 27.1875C41.7364 27.1875 42.8907 26.0332 42.8907 24.6094C42.8907 23.1855 41.7364 22.0312 40.3126 22.0312Z" fill="#00FF00"/>
<path d="M33.4581 36.0392V31.4675C32.5538 31.4674 31.6698 31.199 30.918 30.6964C30.1661 30.1937 29.5803 29.4794 29.2346 28.6437C28.8888 27.8081 28.7987 26.8886 28.9756 26.0017C29.1524 25.1148 29.5884 24.3003 30.2283 23.6613L26.9936 20.4314C25.7152 21.7101 24.8447 23.3391 24.492 25.1126C24.1393 26.886 24.3204 28.7241 25.0123 30.3947C25.7042 32.0652 26.8759 33.4931 28.3792 34.4978C29.8825 35.5025 31.65 36.0389 33.4581 36.0392Z" fill="white"/>
<path d="M91.7322 14.4567C91.647 13.5973 91.2813 12.9297 90.6349 12.4538C89.9886 11.978 89.1115 11.7401 88.0036 11.7401C87.2507 11.7401 86.6151 11.8466 86.0966 12.0597C85.5781 12.2656 85.1804 12.5533 84.9034 12.9226C84.6335 13.2919 84.4986 13.7109 84.4986 14.1797C84.4844 14.5703 84.5661 14.9112 84.7436 15.2024C84.9283 15.4936 85.1804 15.7457 85.5 15.9588C85.8196 16.1648 86.1889 16.3459 86.608 16.5021C87.027 16.6513 87.4744 16.7791 87.9503 16.8857L89.9105 17.3544C90.8622 17.5675 91.7358 17.8516 92.5312 18.2067C93.3267 18.5618 94.0156 18.9986 94.598 19.517C95.1804 20.0355 95.6314 20.6463 95.951 21.3494C96.2777 22.0526 96.4446 22.8587 96.4517 23.7678C96.4446 25.103 96.1037 26.2607 95.429 27.2408C94.7614 28.2138 93.7955 28.9702 92.5312 29.5099C91.2741 30.0426 89.7578 30.3089 87.9822 30.3089C86.2209 30.3089 84.6868 30.0391 83.38 29.4993C82.0803 28.9595 81.0646 28.1605 80.3331 27.1023C79.6087 26.0369 79.2287 24.7195 79.1932 23.1499H83.657C83.7067 23.8814 83.9162 24.4922 84.2855 24.9822C84.6619 25.4652 85.1626 25.831 85.7876 26.0795C86.4197 26.321 87.1335 26.4418 87.929 26.4418C88.7102 26.4418 89.3885 26.3281 89.9638 26.1009C90.5462 25.8736 90.9972 25.5575 91.3168 25.1527C91.6364 24.7479 91.7962 24.2827 91.7962 23.7571C91.7962 23.267 91.6506 22.8551 91.3594 22.5213C91.0753 22.1875 90.6563 21.9034 90.1023 21.669C89.5554 21.4347 88.8842 21.2216 88.0888 21.0298L85.7131 20.4332C83.8736 19.9858 82.4212 19.2862 81.3558 18.3345C80.2905 17.3828 79.7614 16.1009 79.7685 14.4886C79.7614 13.1676 80.1129 12.0135 80.8232 11.0263C81.5405 10.0391 82.5241 9.26847 83.7741 8.71449C85.0241 8.16051 86.4446 7.88352 88.0355 7.88352C89.6548 7.88352 91.0682 8.16051 92.2756 8.71449C93.4901 9.26847 94.4347 10.0391 95.1094 11.0263C95.7841 12.0135 96.1321 13.157 96.1534 14.4567H91.7322ZM108.763 23.0327V13.6364H113.301V30H108.944V27.0277H108.774C108.404 27.9865 107.79 28.7571 106.931 29.3395C106.078 29.9219 105.038 30.2131 103.809 30.2131C102.715 30.2131 101.753 29.9645 100.922 29.4673C100.091 28.9702 99.4412 28.2635 98.9724 27.3473C98.5108 26.4311 98.2764 25.3338 98.2693 24.0554V13.6364H102.808V23.2457C102.815 24.2116 103.074 24.9751 103.585 25.5362C104.097 26.0973 104.782 26.3778 105.641 26.3778C106.188 26.3778 106.7 26.2536 107.176 26.005C107.651 25.7493 108.035 25.3729 108.326 24.8757C108.624 24.3786 108.77 23.7642 108.763 23.0327ZM115.731 36.1364V13.6364H120.206V16.3849H120.408C120.607 15.9446 120.895 15.4972 121.271 15.0426C121.655 14.581 122.152 14.1974 122.763 13.892C123.381 13.5795 124.148 13.4233 125.064 13.4233C126.257 13.4233 127.358 13.7358 128.366 14.3608C129.375 14.9787 130.181 15.9126 130.785 17.1626C131.388 18.4055 131.69 19.9645 131.69 21.8395C131.69 23.6648 131.395 25.206 130.806 26.4631C130.224 27.7131 129.428 28.6612 128.42 29.3075C127.418 29.9467 126.296 30.2663 125.053 30.2663C124.172 30.2663 123.423 30.1207 122.805 29.8295C122.194 29.5384 121.694 29.1726 121.303 28.7322C120.912 28.2848 120.614 27.8338 120.408 27.3793H120.27V36.1364H115.731ZM120.174 21.8182C120.174 22.7912 120.309 23.6399 120.579 24.3643C120.849 25.0888 121.239 25.6534 121.751 26.0582C122.262 26.456 122.883 26.6548 123.615 26.6548C124.354 26.6548 124.979 26.4524 125.49 26.0476C126.001 25.6357 126.388 25.0675 126.651 24.343C126.921 23.6115 127.056 22.7699 127.056 21.8182C127.056 20.8736 126.925 20.0426 126.662 19.3253C126.399 18.608 126.012 18.0469 125.501 17.642C124.989 17.2372 124.361 17.0348 123.615 17.0348C122.876 17.0348 122.251 17.2301 121.74 17.6207C121.236 18.0114 120.849 18.5653 120.579 19.2827C120.309 20 120.174 20.8452 120.174 21.8182ZM140.973 30.3196C139.29 30.3196 137.841 29.9787 136.627 29.2969C135.419 28.608 134.489 27.6349 133.835 26.3778C133.182 25.1136 132.855 23.6186 132.855 21.8928C132.855 20.2095 133.182 18.7322 133.835 17.4609C134.489 16.1896 135.409 15.1989 136.595 14.4886C137.788 13.7784 139.187 13.4233 140.792 13.4233C141.872 13.4233 142.877 13.5973 143.807 13.9453C144.744 14.2862 145.561 14.8011 146.257 15.4901C146.96 16.179 147.507 17.0455 147.898 18.0895C148.288 19.1264 148.484 20.3409 148.484 21.733V22.9794H134.666V20.1669H144.212C144.212 19.5135 144.07 18.9347 143.786 18.4304C143.502 17.9261 143.107 17.532 142.603 17.2479C142.106 16.9567 141.527 16.8111 140.867 16.8111C140.178 16.8111 139.567 16.9709 139.034 17.2905C138.509 17.603 138.097 18.0256 137.798 18.5582C137.5 19.0838 137.347 19.6697 137.34 20.3161V22.9901C137.34 23.7997 137.489 24.4993 137.788 25.0888C138.093 25.6783 138.523 26.1328 139.077 26.4524C139.631 26.772 140.288 26.9318 141.048 26.9318C141.552 26.9318 142.014 26.8608 142.433 26.7188C142.852 26.5767 143.21 26.3636 143.509 26.0795C143.807 25.7955 144.034 25.4474 144.19 25.0355L148.388 25.3125C148.175 26.321 147.738 27.2017 147.078 27.9545C146.424 28.7003 145.579 29.2827 144.542 29.7017C143.512 30.1136 142.323 30.3196 140.973 30.3196ZM150.245 30V13.6364H154.645V16.4915H154.816C155.114 15.4759 155.615 14.7088 156.318 14.1903C157.021 13.6648 157.831 13.402 158.747 13.402C158.974 13.402 159.219 13.4162 159.482 13.4446C159.745 13.473 159.976 13.5121 160.174 13.5618V17.5888C159.961 17.5249 159.667 17.468 159.29 17.4183C158.914 17.3686 158.569 17.3438 158.257 17.3438C157.589 17.3438 156.993 17.4893 156.467 17.7805C155.949 18.0646 155.537 18.4624 155.231 18.9737C154.933 19.4851 154.784 20.0746 154.784 20.7422V30H150.245ZM170.941 13.6364V17.0455H160.841V13.6364H170.941ZM163.153 30V12.4538C163.153 11.2678 163.384 10.2841 163.846 9.50284C164.314 8.72159 164.954 8.13565 165.763 7.74503C166.573 7.3544 167.493 7.15909 168.523 7.15909C169.219 7.15909 169.854 7.21236 170.43 7.31889C171.012 7.42543 171.445 7.52131 171.729 7.60653L170.92 11.0156C170.742 10.9588 170.522 10.9055 170.259 10.8558C170.003 10.8061 169.741 10.7812 169.471 10.7812C168.803 10.7812 168.338 10.9375 168.075 11.25C167.812 11.5554 167.681 11.9851 167.681 12.5391V30H163.153ZM183.007 23.0327V13.6364H187.545V30H183.188V27.0277H183.018C182.648 27.9865 182.034 28.7571 181.175 29.3395C180.322 29.9219 179.282 30.2131 178.053 30.2131C176.959 30.2131 175.997 29.9645 175.166 29.4673C174.335 28.9702 173.685 28.2635 173.217 27.3473C172.755 26.4311 172.521 25.3338 172.513 24.0554V13.6364H177.052V23.2457C177.059 24.2116 177.318 24.9751 177.829 25.5362C178.341 26.0973 179.026 26.3778 179.886 26.3778C180.432 26.3778 180.944 26.2536 181.42 26.005C181.896 25.7493 182.279 25.3729 182.57 24.8757C182.869 24.3786 183.014 23.7642 183.007 23.0327ZM194.514 20.5398V30H189.976V13.6364H194.301V16.5234H194.493C194.855 15.5717 195.462 14.8189 196.314 14.2649C197.167 13.7038 198.2 13.4233 199.414 13.4233C200.551 13.4233 201.542 13.6719 202.387 14.169C203.232 14.6662 203.889 15.3764 204.358 16.2997C204.826 17.2159 205.061 18.3097 205.061 19.581V30H200.522V20.3906C200.53 19.3892 200.274 18.608 199.755 18.0469C199.237 17.4787 198.523 17.1946 197.614 17.1946C197.003 17.1946 196.463 17.326 195.995 17.5888C195.533 17.8516 195.171 18.2351 194.908 18.7393C194.652 19.2365 194.521 19.8366 194.514 20.5398ZM87.375 58H80.642V36.1818H87.6733C89.7898 36.1818 91.6009 36.6186 93.1065 37.4922C94.6122 38.3587 95.7663 39.6051 96.5689 41.2315C97.3714 42.8509 97.7727 44.7898 97.7727 47.0483C97.7727 49.321 97.3679 51.2777 96.5582 52.9183C95.7486 54.5518 94.5696 55.8089 93.0213 56.6896C91.473 57.5632 89.5909 58 87.375 58ZM83.2841 55.6562H87.2045C89.0085 55.6562 90.5036 55.3082 91.6896 54.6122C92.8757 53.9162 93.7599 52.9254 94.3423 51.6399C94.9247 50.3544 95.2159 48.8239 95.2159 47.0483C95.2159 45.2869 94.9283 43.7706 94.353 42.4993C93.7777 41.2209 92.9183 40.2408 91.7749 39.5589C90.6314 38.87 89.2074 38.5256 87.5028 38.5256H83.2841V55.6562ZM100.664 58V41.6364H103.093V44.108H103.263C103.561 43.2983 104.101 42.6413 104.882 42.1371C105.664 41.6328 106.544 41.3807 107.524 41.3807C107.709 41.3807 107.94 41.3842 108.217 41.3913C108.494 41.3984 108.703 41.4091 108.845 41.4233V43.9801C108.76 43.9588 108.565 43.9268 108.26 43.8842C107.961 43.8345 107.645 43.8097 107.311 43.8097C106.516 43.8097 105.806 43.9766 105.181 44.3104C104.563 44.6371 104.073 45.0916 103.711 45.674C103.355 46.2493 103.178 46.9062 103.178 47.6449V58H100.664ZM115.441 58.3835C114.404 58.3835 113.463 58.1882 112.618 57.7976C111.773 57.3999 111.102 56.8281 110.604 56.0824C110.107 55.3295 109.859 54.4205 109.859 53.3551C109.859 52.4176 110.043 51.6577 110.413 51.0753C110.782 50.4858 111.276 50.0241 111.894 49.6903C112.511 49.3565 113.193 49.108 113.939 48.9446C114.692 48.7741 115.448 48.6392 116.208 48.5398C117.202 48.4119 118.009 48.3161 118.626 48.2521C119.251 48.1811 119.706 48.0639 119.99 47.9006C120.281 47.7372 120.427 47.4531 120.427 47.0483V46.9631C120.427 45.9119 120.139 45.0952 119.564 44.5128C118.996 43.9304 118.133 43.6392 116.975 43.6392C115.775 43.6392 114.834 43.902 114.152 44.4276C113.47 44.9531 112.991 45.5142 112.714 46.1108L110.327 45.2585C110.754 44.2642 111.322 43.4901 112.032 42.9361C112.749 42.375 113.531 41.9844 114.376 41.7642C115.228 41.5369 116.066 41.4233 116.89 41.4233C117.416 41.4233 118.019 41.4872 118.701 41.6151C119.39 41.7358 120.054 41.9879 120.693 42.3714C121.34 42.755 121.876 43.3338 122.302 44.108C122.728 44.8821 122.941 45.919 122.941 47.2188V58H120.427V55.7841H120.299C120.129 56.1392 119.844 56.5192 119.447 56.924C119.049 57.3288 118.52 57.6733 117.859 57.9574C117.199 58.2415 116.393 58.3835 115.441 58.3835ZM115.825 56.125C116.819 56.125 117.657 55.9297 118.339 55.5391C119.028 55.1484 119.546 54.6442 119.894 54.0263C120.249 53.4084 120.427 52.7585 120.427 52.0767V49.7756C120.32 49.9034 120.086 50.0206 119.724 50.1271C119.369 50.2266 118.957 50.3153 118.488 50.3935C118.026 50.4645 117.575 50.5284 117.135 50.5852C116.702 50.6349 116.35 50.6776 116.08 50.7131C115.427 50.7983 114.816 50.9368 114.248 51.1286C113.687 51.3132 113.232 51.5937 112.884 51.9702C112.543 52.3395 112.373 52.8437 112.373 53.483C112.373 54.3565 112.696 55.017 113.342 55.4645C113.996 55.9048 114.823 56.125 115.825 56.125ZM130.037 58L125.052 41.6364H127.694L131.231 54.1648H131.401L134.895 41.6364H137.58L141.032 54.1222H141.202L144.739 41.6364H147.381L142.395 58H139.924L136.344 45.429H136.089L132.509 58H130.037Z" fill="white"/>
</g>
<defs>
<clipPath id="clip0_252_65464">
<rect width="207" height="66" fill="white"/>
</clipPath>
</defs>
</svg>
